<svg id="Capa_1" enable-background="new 0 0 512 512" height="" viewBox="0 0 512 512" width="" xmlns="http://www.w3.org/2000/svg"><g id="Layer_1" display="none"><g display="inline"><g fill="none" stroke-miterlimit="51.2" stroke-width="5.12"><g stroke="#8aaeff"><path d="m64 64h384v384h-384z"/><path d="m256 64v384"/><path d="m64 256h384"/><path d="m448 64-384 384"/><path d="m64 64 384 384"/><path d="m64 160h384"/><path d="m64 352h384"/><path d="m352 64v384"/><path d="m160 64v384"/></g><path d="m64 112h384" stroke="#a8a8a8"/><path d="m64 208h384" stroke="#a8a8a8"/><path d="m64 304h384" stroke="#a8a8a8"/><path d="m64 400h384" stroke="#a8a8a8"/><path d="m112 448v-384" stroke="#a8a8a8"/><path d="m208 448v-384" stroke="#a8a8a8"/><path d="m304 448v-384" stroke="#a8a8a8"/><path d="m400 448v-384" stroke="#a8a8a8"/></g></g></g><g id="Layer_2"><path d="m256 389.4c-11.5 0-23-4.4-31.7-13.1l-157.4-157.4c-8.5-8.5-13.1-19.7-13.1-31.7s4.7-23.2 13.1-31.7l19.9-19.9c17.5-17.5 45.9-17.5 63.4 0l105.8 105.9 105.9-105.9c17.5-17.5 45.9-17.5 63.4 0l19.9 19.9c17.5 17.5 17.5 45.9 0 63.4l-157.5 157.4c-8.7 8.8-20.2 13.1-31.7 13.1zm-137.5-246.4c-6.2 0-12.5 2.4-17.2 7.1l-19.9 19.9c-4.6 4.6-7.1 10.7-7.1 17.2s2.5 12.6 7.1 17.2l157.4 157.4c9.5 9.5 24.9 9.5 34.4 0l157.4-157.4c4.6-4.6 7.1-10.7 7.1-17.2s-2.5-12.6-7.1-17.2l-19.9-19.9c-9.5-9.5-24.9-9.5-34.4 0l-113.1 113.1c-3.8 3.8-10.6 3.8-14.5 0l-113-113.1c-4.8-4.7-11-7.1-17.2-7.1z"/></g></svg>
