<svg enable-background="new 0 0 100 100" height="" viewBox="0 0 100 100" width="" xmlns="http://www.w3.org/2000/svg"><g id="Layer_1" display="none"><g display="inline"><g fill="none" stroke-miterlimit="10"><g stroke="#8aaeff"><path d="m12.5 12.5h75v75h-75z"/><path d="m50 12.5v75"/><path d="m12.5 50h75"/><path d="m87.5 12.5-75 75"/><path d="m12.5 12.5 75 75"/><path d="m12.5 31.25h75"/><path d="m12.5 68.75h75"/><path d="m68.75 12.5v75"/><path d="m31.25 12.5v75"/></g><path d="m12.5 21.875h75" stroke="#a8a8a8"/><path d="m12.5 40.625h75" stroke="#a8a8a8"/><path d="m12.5 59.375h75" stroke="#a8a8a8"/><path d="m12.5 78.125h75" stroke="#a8a8a8"/><path d="m21.875 87.5v-75" stroke="#a8a8a8"/><path d="m40.625 87.5v-75" stroke="#a8a8a8"/><path d="m59.375 87.5v-75" stroke="#a8a8a8"/><path d="m78.125 87.5v-75" stroke="#a8a8a8"/></g></g></g><g id="Layer_3" display="none"><text display="inline" font-family="'MyriadPro-Regular'" font-size="12" transform="translate(26.064 -1.34)">arrowhead up</text></g><g id="Layer_2"><path d="m23.135 76.063c-2.242 0-4.483-.854-6.19-2.56l-3.88-3.881c-1.654-1.653-2.564-3.852-2.564-6.19s.911-4.537 2.564-6.19l30.745-30.745c3.413-3.413 8.967-3.413 12.38 0l30.746 30.746c1.654 1.653 2.564 3.852 2.564 6.19s-.911 4.537-2.564 6.19l-3.88 3.88c-3.413 3.413-8.967 3.413-12.38 0l-20.676-20.674-20.675 20.674c-1.707 1.707-3.949 2.56-6.19 2.56zm26.865-48.128c-1.217 0-2.435.463-3.362 1.39l-30.745 30.746c-.898.898-1.393 2.092-1.393 3.362s.495 2.463 1.393 3.361l3.88 3.881c1.854 1.854 4.87 1.853 6.724 0l22.089-22.089c.78-.781 2.048-.781 2.828 0l22.089 22.089c1.854 1.854 4.87 1.854 6.724 0l3.88-3.881c.898-.898 1.393-2.092 1.393-3.361s-.495-2.463-1.393-3.361l-30.745-30.747c-.927-.927-2.145-1.39-3.362-1.39z"/></g></svg>
