<svg height="512" viewBox="0 0 128 128" width="512" xmlns="http://www.w3.org/2000/svg"><g><path d="m64 5.215a58.785 58.785 0 1 0 58.785 58.785 58.852 58.852 0 0 0 -58.785-58.785zm0 114.07a55.285 55.285 0 1 1 55.285-55.285 55.348 55.348 0 0 1 -55.285 55.285z"/><path d="m64 13.964a50.036 50.036 0 1 0 50.037 50.036 50.093 50.093 0 0 0 -50.037-50.036zm0 96.572a46.536 46.536 0 1 1 46.537-46.536 46.59 46.59 0 0 1 -46.537 46.536z"/><path d="m85.536 54.214h-43.072a9.786 9.786 0 0 0 0 19.572h43.072a9.786 9.786 0 0 0 0-19.572zm0 16.072h-43.072a6.286 6.286 0 0 1 0-12.572h43.072a6.286 6.286 0 0 1 0 12.572z"/></g></svg>
