<svg id="Outline" height="" viewBox="0 0 512 512" width="" xmlns="http://www.w3.org/2000/svg"><path d="m295.85 56a40 40 0 1 0 -67.217 29.276c-29.1 11.634-50.558 41.352-52.619 77.074a8 8 0 0 0 1.457 5.084 96 96 0 0 0 156.758 0 8.007 8.007 0 0 0 1.458-5.084c-2.062-35.722-23.521-65.44-52.621-77.074a39.89 39.89 0 0 0 12.784-29.276zm-40-24a24 24 0 1 1 -24 24 24.028 24.028 0 0 1 24-24zm63.65 128.459a80 80 0 0 1 -127.3 0c3.368-36.37 30.856-64.459 63.65-64.459s60.282 28.089 63.65 64.459z"/><path d="m190.529 455.434a8 8 0 0 0 1.457-5.084c-2.061-35.722-23.52-65.44-52.619-77.074a40 40 0 1 0 -54.433 0c-29.1 11.634-50.559 41.352-52.621 77.074a8.007 8.007 0 0 0 1.458 5.084 96 96 0 0 0 156.758 0zm-78.379-135.434a24 24 0 1 1 -24 24 24.027 24.027 0 0 1 24-24zm-63.65 128.459c3.368-36.37 30.855-64.459 63.65-64.459s60.282 28.089 63.652 64.459a80 80 0 0 1 -127.3 0z"/><path d="m427.367 373.276a40 40 0 1 0 -54.433 0c-29.1 11.634-50.559 41.352-52.621 77.074a8.007 8.007 0 0 0 1.458 5.084 96 96 0 0 0 156.758 0 8 8 0 0 0 1.457-5.084c-2.061-35.722-23.52-65.44-52.619-77.074zm-27.217-53.276a24 24 0 1 1 -24 24 24.027 24.027 0 0 1 24-24zm0 160a80.173 80.173 0 0 1 -63.65-31.541c3.368-36.37 30.855-64.459 63.65-64.459s60.282 28.089 63.652 64.459a80.17 80.17 0 0 1 -63.652 31.541z"/><path d="m400 288a8 8 0 0 0 8-8v-24a8 8 0 0 0 -8-8h-136v-16a8 8 0 0 0 -16 0v16h-136a8 8 0 0 0 -8 8v24a8 8 0 0 0 16 0v-16h272v16a8 8 0 0 0 8 8z"/></svg>
